#define squiggle_width  15
#define squiggle_height 30
static unsigned char squiggle_bits[] = {
 0x00,0x80,0x00,0x80,0x00,0x80,0x00,0x80,0x00,0x80,0x00,0x80,
 0x00,0x80,0x00,0x80,0x00,0x80,0x00,0x80,0x00,0x80,0x00,0x80,
 0x00,0x80,0x00,0x80,0x00,0x80,0x00,0x80,0x00,0x80,0x00,0x80,
 0x00,0x80,0x00,0x80,0x00,0x80,0x00,0x80,0x00,0x80,0x00,0x80,
 0x3e,0x80,0x3e,0x80,0xe3,0xe3,0xe3,0xe3,0x00,0xbe,0x00,0xbe};