#define squiggle_width  10
#define squiggle_height 20
static unsigned char squiggle_bits[] = {
 0x00,0xfc,0x00,0xfc,0x00,0xfc,0x00,0xfc,0x00,0xfc,0x00,0xfc,
 0x00,0xfc,0x00,0xfc,0x00,0xfc,0x00,0xfc,0x00,0xfc,0x00,0xfc,
 0x00,0xfc,0x00,0xfc,0x00,0xfc,0x00,0xfc,0x0e,0xfc,0x3f,0xfe,
 0xf1,0xff,0xc0,0xfd};
